<?xml version="1.0" encoding="iso-8859-1"?>
<!-- Generator: Adobe Illustrator 19.0.0, SVG Export Plug-In . SVG Version: 6.00 Build 0)  -->
<svg version="1.1" id="Capa_1" xmlns="http://www.w3.org/2000/svg" xmlns:xlink="http://www.w3.org/1999/xlink" x="0px" y="0px"
	 viewBox="0 0 512 512" style="enable-background:new 0 0 512 512;" xml:space="preserve">
<path style="fill:#5C5E70;" d="M512,256c0,26.478-4.023,52.015-11.483,76.037c-1.63,5.245-3.417,10.418-5.36,15.506
	c-11.389,29.706-28.139,56.748-49.068,79.935c-13.876,15.37-29.592,29.059-46.801,40.699C358.4,495.846,309.091,512,256,512
	s-102.41-16.165-143.297-43.833c-11.839-8.014-22.967-16.99-33.28-26.823c-8.704-8.297-16.833-17.199-24.304-26.645
	c-28.557-36.091-47.585-80.06-53.3-128.115C0.616,276.553,0,266.355,0,256C0,114.615,114.615,0,256,0
	c10.355,0,20.553,0.616,30.584,1.818c28.536,3.385,55.62,11.473,80.478,23.468c12.089,5.82,23.656,12.581,34.597,20.167
	c14.043,9.738,27.073,20.835,38.87,33.123C484.791,124.594,512,187.12,512,256z"/>
<path style="fill:#FF525D;" d="M286.584,0v286.584H1.818C0.616,276.553,0,266.355,0,256V0H286.584z"/>
<path style="fill:#F4A14E;" d="M512,45.453V256c0,26.478-4.023,52.015-11.483,76.037H225.405V45.453H512z"/>
<g>
	<path style="fill:#F9EED7;" d="M317.629,229.002c0-0.396,0.133-0.926,0.264-1.454l24.591-80.646
		c1.454-4.627,7.404-6.874,13.484-6.874c6.081,0,12.032,2.248,13.485,6.874l24.722,80.646c0.132,0.529,0.264,1.057,0.264,1.454
		c0,4.892-7.536,8.462-13.22,8.462c-3.305,0-5.949-1.057-6.743-3.834l-4.495-16.525h-27.896l-4.495,16.525
		c-0.793,2.776-3.437,3.834-6.743,3.834C325.165,237.464,317.629,233.894,317.629,229.002z M365.62,201.239l-9.651-35.431
		l-9.651,35.431H365.62z"/>
	<path style="fill:#F9EED7;" d="M421.803,152.852c0,5.024-4.76,9.519-10.708,9.519c-6.081,0-10.841-4.495-10.841-9.519
		c0-5.024,4.759-9.386,10.841-9.386C417.044,143.464,421.803,147.827,421.803,152.852z M421.407,180.746v50.371
		c0,3.173-4.628,6.346-10.312,6.346c-5.95,0-10.18-3.173-10.18-6.346v-50.371c0-3.701,4.231-6.214,10.18-6.214
		C416.779,174.533,421.407,177.045,421.407,180.746z"/>
	<path style="fill:#F9EED7;" d="M97.217,101.65c0-4.362,5.157-6.213,10.312-6.213s10.312,1.851,10.312,6.213v84.084
		c0,4.231-5.157,6.346-10.312,6.346s-10.312-2.115-10.312-6.346V101.65z"/>
	<path style="fill:#F9EED7;" d="M189.364,99.402v86.332c0,3.173-4.231,6.346-10.048,6.346c-5.024,0-9.122-3.173-9.122-6.346v-2.909
		c-2.644,5.421-10.047,10.576-18.508,10.576c-12.296,0-23.004-13.353-23.004-28.027v-9.255c0-15.203,10.444-27.763,23.4-27.763
		c8.066,0,14.014,4.891,16.79,10.048V99.402c0-3.701,4.627-6.214,10.444-6.214C185.133,93.188,189.364,95.7,189.364,99.402z
		 M149.173,165.374c0,5.157,4.231,10.179,9.518,10.179c5.685,0,10.18-6.214,10.18-8.462v-10.972c0-6.214-5.289-9.915-10.048-9.915
		c-5.421,0-9.651,4.891-9.651,9.915V165.374z"/>
</g>
<path style="fill:#34ABE0;" d="M399.287,225.416v242.761C358.4,495.846,309.091,512,256,512s-102.41-16.165-143.297-43.833V225.416
	H399.287z"/>
<g>
	<path style="fill:#F9EED7;" d="M196.109,325.938c0-3.305,3.041-6.213,7.669-6.213h27.366c17.452,0,31.201,8.196,31.201,30.408
		v0.661c0,22.21-14.279,30.672-32.522,30.672h-13.088v28.557c0,4.231-5.157,6.346-10.312,6.346s-10.312-2.115-10.312-6.346V325.938z
		 M216.734,337.705V365.6h13.088c7.403,0,11.898-4.231,11.898-13.22v-1.454c0-8.99-4.495-13.22-11.898-13.22h-13.088V337.705z"/>
	<path style="fill:#F9EED7;" d="M298.036,398.124c0-9.122-30.935-2.909-30.935-25.119c0-9.783,6.081-20.36,24.854-20.36
		c11.502,0,22.476,3.966,22.476,9.519c0,2.644-2.644,9.651-7.403,9.651c-3.57,0-7.668-3.966-14.807-3.966
		c-5.289,0-7.536,2.248-7.536,4.231c0,7.403,31.2,1.983,31.2,25.252c0,12.428-8.99,20.36-25.515,20.36
		c-13.881,0-25.119-5.684-25.119-12.163c0-3.173,2.644-8.99,6.743-8.99c4.231,0,7.27,5.95,17.847,5.95
		C296.847,402.486,298.036,399.974,298.036,398.124z"/>
</g>
<g>
</g>
<g>
</g>
<g>
</g>
<g>
</g>
<g>
</g>
<g>
</g>
<g>
</g>
<g>
</g>
<g>
</g>
<g>
</g>
<g>
</g>
<g>
</g>
<g>
</g>
<g>
</g>
<g>
</g>
</svg>
